# xmcd CD database file
#
# Track frame offsets:
#	150
#	20038
#	39607
#	46808
#	60111
#	69537
#	98843
#	100352
#	116788
#	170631
#	181122
#	219638
#	237444
#	249008
#	261999
#	284955
#	317553
#
# Disc length: 4531 seconds
#
# Revision: 3
# Processed by: cddbd v1.5.2PL0 Copyright (c) Steve Scherf et al.
# Submitted via: CDex 1.79
#
DISCID=f711b111
DTITLE=Wagner - Die Walk re (Querschnitt)
DYEAR=1900
DGENRE=Blues
TTITLE0=Vorspiel
TTITLE1=Siegmund, Hunding, Sieglinde
TTITLE2=Siegmund
TTITLE3=Siegmund
TTITLE4=Sieglinde
TTITLE5=Siegmund, Sieglinde
TTITLE6=Siegmund, Sieglinde
TTITLE7=Siegmund, Sieglinde
TTITLE8=Br nnhilde, Siegmund
TTITLE9=Br nnhilde, Siegmund
TTITLE10=Die Walk ren
TTITLE11=Br nnhilde, Die Walk ren
TTITLE12=Br nnhilde, Wotan
TTITLE13=Br nnhilde, Wotan
TTITLE14=Wotan
TTITLE15=Wotan
TTITLE16=Wotan
EXTD=
EXTT0=
EXTT1=
EXTT2=
EXTT3=
EXTT4=
EXTT5=
EXTT6=
EXTT7=
EXTT8=
EXTT9=
EXTT10=
EXTT11=
EXTT12=
EXTT13=
EXTT14=
EXTT15=
EXTT16=
PLAYORDER=
